<svg width="24" height="24" viewBox="0 0 24 24" fill="none" xmlns="http://www.w3.org/2000/svg">
    <path d="M22.5416 10.1999H18.6578L13.7528 3.19492C13.6095 2.99014 13.3244 2.93872 13.1154 3.07891C12.9068 3.21998 12.854 3.4999 12.9972 3.70468L17.5453 10.1998H6.45466L11.0028 3.70472C11.146 3.49994 11.0932 3.21998 10.8846 3.07895C10.6769 2.93876 10.3914 2.99019 10.2472 3.19497L5.3422 10.1999H1.45835C1.205 10.1999 1 10.4012 1 10.6499C1 10.8986 1.205 11.0999 1.45835 11.0999H2.03984L4.8417 19.7458C5.0852 20.4959 5.78701 21 6.58863 21H17.4114C18.213 21 18.9148 20.4959 19.1583 19.7453L21.9601 11.0999H22.5417C22.795 11.0999 23 10.8986 23 10.6499C23 10.4012 22.795 10.1999 22.5416 10.1999ZM18.2846 19.4724C18.1628 19.8477 17.8119 20.1 17.4113 20.1H6.58863C6.18804 20.1 5.83711 19.8477 5.71538 19.4728L3.00187 11.0999H20.9981L18.2846 19.4724Z" fill="white" stroke="white" />
</svg>
    